<svg width="22" height="22" viewBox="0 0 22 22" fill="none" xmlns="http://www.w3.org/2000/svg">
<path d="M17.4639 0.154297C19.5048 0.154549 21.0858 1.74233 21.0918 3.78223V17.4717C21.0861 19.1199 20.0446 20.4967 18.4902 20.9492L18.1729 21.0273C17.9361 21.0759 17.6954 21.0937 17.458 21.0938C15.1804 21.0966 12.9026 21.0977 10.625 21.0977L3.79199 21.0938C1.73935 21.0937 0.158365 19.5056 0.152344 17.4541C0.152344 12.8993 0.146585 8.34331 0.152344 3.78809L0.157227 3.59863C0.25205 1.65 1.80308 0.160124 3.77441 0.154297C8.33545 0.148538 12.8971 0.148538 17.4639 0.154297ZM3.86719 1.44434C3.70927 1.44434 3.56153 1.44484 3.42188 1.4707L3.41895 1.47168C2.20969 1.67251 1.4424 2.59238 1.44238 3.8457V17.4014C1.44238 17.5531 1.44323 17.6964 1.46387 17.8262L1.50977 18.0459C1.78092 19.1197 2.66346 19.8027 3.82129 19.8027H17.4229C17.569 19.8027 17.6983 19.8027 17.8252 19.7773L17.8301 19.7764C19.0249 19.5754 19.8065 18.653 19.8066 17.4424V3.86914C19.8066 3.79293 19.8064 3.71863 19.8037 3.64746L19.7861 3.44336C19.6848 2.82526 19.4018 2.32771 18.9902 1.98438C18.5782 1.64081 18.0284 1.44435 17.3828 1.44434H3.86719Z" fill="#413E3E" stroke="#413E3E" stroke-width="0.3"/>
<path d="M4.2998 10.2998H16.2998" stroke="#413E3E" stroke-width="1.5" stroke-linecap="round" stroke-linejoin="round"/>
<path d="M10.2998 16.2998V4.2998" stroke="#413E3E" stroke-width="1.5" stroke-linecap="round" stroke-linejoin="round"/>
</svg>
