<svg width="25" height="24" viewBox="0 0 25 24" fill="none" xmlns="http://www.w3.org/2000/svg">
<path d="M18.793 10.75H16.793C14.373 10.75 13.043 9.42 13.043 7V5C13.043 2.58 14.373 1.25 16.793 1.25H18.793C21.213 1.25 22.543 2.58 22.543 5V7C22.543 9.42 21.213 10.75 18.793 10.75ZM16.793 2.75C15.213 2.75 14.543 3.42 14.543 5V7C14.543 8.58 15.213 9.25 16.793 9.25H18.793C20.373 9.25 21.043 8.58 21.043 7V5C21.043 3.42 20.373 2.75 18.793 2.75H16.793Z" fill="#413E3E"/>
<path d="M6.79297 22.75H4.79297C2.37297 22.75 1.04297 21.42 1.04297 19V17C1.04297 14.58 2.37297 13.25 4.79297 13.25H6.79297C9.21297 13.25 10.543 14.58 10.543 17V19C10.543 21.42 9.21297 22.75 6.79297 22.75ZM4.79297 14.75C3.21297 14.75 2.54297 15.42 2.54297 17V19C2.54297 20.58 3.21297 21.25 4.79297 21.25H6.79297C8.37297 21.25 9.04297 20.58 9.04297 19V17C9.04297 15.42 8.37297 14.75 6.79297 14.75H4.79297Z" fill="#413E3E"/>
<path d="M5.79297 10.75C3.17297 10.75 1.04297 8.62 1.04297 6C1.04297 3.38 3.17297 1.25 5.79297 1.25C8.41297 1.25 10.543 3.38 10.543 6C10.543 8.62 8.41297 10.75 5.79297 10.75ZM5.79297 2.75C4.00297 2.75 2.54297 4.21 2.54297 6C2.54297 7.79 4.00297 9.25 5.79297 9.25C7.58297 9.25 9.04297 7.79 9.04297 6C9.04297 4.21 7.58297 2.75 5.79297 2.75Z" fill="#413E3E"/>
<path d="M17.793 22.75C15.173 22.75 13.043 20.62 13.043 18C13.043 15.38 15.173 13.25 17.793 13.25C20.413 13.25 22.543 15.38 22.543 18C22.543 20.62 20.413 22.75 17.793 22.75ZM17.793 14.75C16.003 14.75 14.543 16.21 14.543 18C14.543 19.79 16.003 21.25 17.793 21.25C19.583 21.25 21.043 19.79 21.043 18C21.043 16.21 19.583 14.75 17.793 14.75Z" fill="#413E3E"/>
</svg>
