<svg width="44" height="44" viewBox="0 0 44 44" fill="none" xmlns="http://www.w3.org/2000/svg">
<path d="M16.4997 18.3333C18.5247 18.3333 20.1663 16.6917 20.1663 14.6667C20.1663 12.6416 18.5247 11 16.4997 11C14.4746 11 12.833 12.6416 12.833 14.6667C12.833 16.6917 14.4746 18.3333 16.4997 18.3333Z" stroke="white" stroke-width="1.5" stroke-linecap="round" stroke-linejoin="round"/>
<path d="M23.8337 3.6665H16.5003C7.33366 3.6665 3.66699 7.33317 3.66699 16.4998V27.4998C3.66699 36.6665 7.33366 40.3332 16.5003 40.3332H27.5003C36.667 40.3332 40.3337 36.6665 40.3337 27.4998V18.3332" stroke="white" stroke-width="1.5" stroke-linecap="round" stroke-linejoin="round"/>
<path d="M28.875 9.1665H38.9583" stroke="white" stroke-width="1.5" stroke-linecap="round"/>
<path d="M33.917 14.2083V4.125" stroke="white" stroke-width="1.5" stroke-linecap="round"/>
<path d="M4.89453 34.7419L13.9329 28.6735C15.3812 27.7019 17.4712 27.8119 18.7729 28.9302L19.3779 29.4619C20.8079 30.6902 23.1179 30.6902 24.5479 29.4619L32.1745 22.9169C33.6045 21.6885 35.9145 21.6885 37.3445 22.9169L40.3329 25.4835" stroke="white" stroke-width="1.5" stroke-linecap="round" stroke-linejoin="round"/>
</svg>
