<svg width="12" height="10" viewBox="0 0 12 10" fill="none" xmlns="http://www.w3.org/2000/svg">
<path d="M10.9984 0H0.998406C0.820155 0.000639448 0.645302 0.0488178 0.491879 0.139566C0.338457 0.230315 0.21202 0.360348 0.125609 0.516255C0.0391977 0.672162 -0.00405918 0.848297 0.000299697 1.0265C0.00465858 1.20469 0.0564753 1.3785 0.150406 1.53L5.15041 9.53C5.2403 9.67383 5.36529 9.79243 5.51364 9.87465C5.66198 9.95687 5.8288 10 5.99841 10C6.16801 10 6.33483 9.95687 6.48318 9.87465C6.63152 9.79243 6.75652 9.67383 6.84641 9.53L11.8464 1.53C11.941 1.37863 11.9934 1.20469 11.9981 1.02625C12.0027 0.847804 11.9596 0.671359 11.8731 0.515231C11.7865 0.359103 11.6598 0.228984 11.506 0.138382C11.3522 0.0477804 11.1769 -4.21001e-07 10.9984 0Z" fill="#161111"/>
</svg>
