<svg width="30" height="30" viewBox="0 0 30 30" fill="none" xmlns="http://www.w3.org/2000/svg">
<path d="M11.9258 1.95117L11.9434 1.95801C11.9693 1.96838 11.9935 1.98448 12.0029 1.99023C12.0166 1.99855 12.0176 1.99767 12.0146 1.99707L12.0137 1.99805C13.4067 2.24191 14.3571 3.40742 14.2715 4.81738C14.2614 5.00152 14.2236 5.18026 14.1787 5.35645C14.1381 5.51596 14.0947 5.66897 14.0566 5.83105C14.9279 6.48307 15.831 7.1596 16.7256 7.8291C17.4094 7.35441 17.9794 7.11422 18.5703 7.13867C19.1622 7.1633 19.7546 7.45365 20.4863 7.9873C20.5179 7.97102 20.5491 7.95627 20.5791 7.9375L21.7295 7.21875C22.1115 6.97829 22.4924 6.73577 22.8721 6.49219C22.8727 6.49121 22.874 6.49013 22.875 6.48828C22.8795 6.48024 22.8852 6.46821 22.8896 6.45215C22.8989 6.41892 22.9013 6.38323 22.8994 6.3623V6.36133C22.8841 6.24432 22.8575 6.12756 22.8311 6.00195C22.8048 5.87689 22.7792 5.74475 22.7725 5.60938C22.7132 4.44798 23.4387 3.38092 24.5195 2.98535C25.6203 2.58328 26.859 2.94507 27.5771 3.84766C27.8962 4.24651 28.0337 4.71013 28.1543 5.16699L28.1572 5.18066V5.19434C28.1509 5.42759 28.1504 5.64297 28.1504 5.86523V5.88184L28.1445 5.89844C28.0908 6.04697 28.0476 6.19469 27.9951 6.35059C27.9438 6.50295 27.8855 6.65698 27.8086 6.80078C26.9588 8.37499 24.8912 8.69094 23.5938 7.46289C23.5634 7.43686 23.5329 7.41036 23.498 7.37988C23.4685 7.39466 23.4387 7.40905 23.4092 7.42383C22.6568 7.89174 21.9082 8.3686 21.1543 8.83105L21.1523 8.83203C21.0881 8.87 21.0675 8.89583 21.0596 8.91504C21.0521 8.9332 21.0476 8.9661 21.0703 9.04004C21.6168 10.8177 20.3315 12.5585 18.4746 12.5586C16.6206 12.552 15.3157 10.6082 16.0078 8.88672L16.0088 8.88477C16.0234 8.84964 16.0367 8.81255 16.0518 8.77051C16.0594 8.74929 16.0676 8.72646 16.0762 8.70312C16.0163 8.6571 15.9559 8.61081 15.8965 8.56445C15.8173 8.5027 15.7387 8.4415 15.6602 8.38184C14.9384 7.83736 14.2069 7.29641 13.4902 6.75098L13.4189 6.70605C13.4012 6.69781 13.3883 6.69465 13.3779 6.69434C13.3598 6.69381 13.3291 6.70068 13.2705 6.74805L13.2686 6.74902C12.8309 7.09193 12.3697 7.29163 11.8877 7.34473C11.4059 7.39775 10.9105 7.30367 10.4053 7.07227V7.07324C10.344 7.0457 10.3154 7.04005 10.2979 7.04199C10.2864 7.04335 10.2646 7.04989 10.2256 7.09668C9.08419 8.46636 7.92953 9.82958 6.78223 11.1924L6.76465 11.2207C7.13775 11.7163 7.36098 12.2726 7.3418 12.9121C7.30899 13.9938 6.81352 14.8153 5.8457 15.2959C5.00019 15.7155 4.15604 15.6889 3.35059 15.2402L3.19043 15.1445C2.55714 14.7421 2.17419 14.1602 2.0166 13.4316V13.4297C2.00602 13.3769 1.98409 13.322 1.95801 13.2568L1.95117 13.2393V12.5918L1.95801 12.5732C1.96638 12.5524 1.97776 12.5308 1.98242 12.5215C1.98859 12.5092 1.99073 12.5043 1.99121 12.502C2.30811 10.6641 4.12598 9.68752 5.81055 10.4697C5.88511 10.5041 5.91959 10.5046 5.93945 10.499C5.96266 10.4925 5.99358 10.4716 6.04883 10.4072C7.15304 9.08091 8.26396 7.76089 9.38086 6.44727L9.43555 6.37207C9.44584 6.35313 9.44915 6.33882 9.4502 6.32715C9.45207 6.30494 9.44514 6.26927 9.39844 6.19922V6.19824C8.48614 4.88263 8.8356 3.17501 10.2178 2.3457L10.3389 2.28027C10.4613 2.21892 10.5884 2.16895 10.7148 2.125C10.8885 2.06464 11.049 2.01733 11.2109 1.95703L11.2285 1.95117H11.9258ZM4.66504 11.2578C3.78124 11.258 3.03944 11.9934 3.0332 12.8838C3.02723 13.7737 3.77488 14.5276 4.67676 14.5156H4.67773C5.56731 14.5095 6.28505 13.7813 6.28516 12.8838C6.28516 11.9869 5.55514 11.2578 4.66504 11.2578ZM18.5186 8.23633C17.6278 8.23653 16.8927 8.96093 16.8867 9.85742C16.8809 10.7412 17.654 11.5128 18.5293 11.4951C19.4277 11.4771 20.1513 10.7469 20.1455 9.85742C20.1395 8.95985 19.4212 8.23633 18.5186 8.23633ZM25.46 3.88965C24.5719 3.87788 23.8231 4.63065 23.8291 5.53418C23.8351 6.43754 24.5584 7.15422 25.4551 7.1543C26.3455 7.1543 27.0819 6.42444 27.0879 5.52734C27.0936 4.65081 26.3516 3.90162 25.46 3.88965ZM11.6006 3.02637C10.7058 3.01444 9.96277 3.76166 9.96875 4.66504L9.97754 4.83203C10.0601 5.6548 10.7479 6.2851 11.5889 6.28516C12.4794 6.28516 13.2155 5.55541 13.2217 4.66504L13.2139 4.50195C13.1341 3.69708 12.4304 3.03772 11.6006 3.02637Z" fill="#C6273A" stroke="#C6273A" stroke-width="0.2"/>
<path d="M24.3184 14.7227C24.0853 14.7227 23.9743 14.7585 23.915 14.8193C23.8551 14.8811 23.8213 14.9957 23.8213 15.2324V26.9023C23.8213 26.9587 23.8254 27.0154 23.8291 27.0752H27.0859V15.2002C27.0859 14.995 27.048 14.8854 26.9854 14.8232C26.9224 14.761 26.8111 14.7227 26.6025 14.7227C25.8417 14.7163 25.0809 14.7227 24.3184 14.7227ZM28.1553 28.1514H23.1553L23.1367 28.1436C22.9908 28.0815 22.8889 27.9887 22.8271 27.8691C22.7666 27.7519 22.7486 27.6169 22.752 27.4775C22.7551 25.4255 22.7549 23.3748 22.7549 21.3242C22.7549 19.2731 22.7546 17.2218 22.7578 15.1689C22.7578 14.7321 22.8794 14.3633 23.1172 14.0986C23.3558 13.8331 23.7019 13.6827 24.1299 13.666L24.79 13.6465C25.4512 13.6351 26.1144 13.647 26.7764 13.666H26.7773C27.106 13.6762 27.387 13.7714 27.6123 13.9473C27.8093 14.1011 27.9584 14.3127 28.0596 14.5732L28.1006 14.6875L28.1035 14.6982H28.1025C28.1018 14.6948 28.1016 14.6958 28.1074 14.7041C28.1103 14.7082 28.1141 14.7125 28.1191 14.7188C28.1235 14.7243 28.1298 14.7324 28.1357 14.7402L28.1553 14.7676V28.1514Z" fill="#C6273A" stroke="#C6273A" stroke-width="0.2"/>
<path d="M12.7881 14.5215H12.7891C13.247 14.5281 13.6252 14.6714 13.8887 14.9375C14.1522 15.2036 14.29 15.5821 14.29 16.0371C14.29 19.8448 14.2896 23.6524 14.2959 27.46L14.292 27.5625C14.2837 27.6635 14.262 27.7593 14.2197 27.8467C14.1627 27.9645 14.0719 28.0611 13.9424 28.1367L13.9189 28.1504H9.2959L9.27734 28.1426C9.13143 28.0806 9.02957 27.9877 8.96777 27.8682C8.90726 27.751 8.88918 27.6159 8.89258 27.4766C8.89575 25.5706 8.89551 23.6647 8.89551 21.7578C8.89551 19.85 8.89526 17.9405 8.89844 16.0303C8.89854 15.5698 9.0356 15.1919 9.29883 14.9277C9.56207 14.6636 9.94 14.5248 10.4004 14.5215C11.1941 14.5151 11.9944 14.5151 12.7881 14.5215ZM10.5088 15.5977C10.3763 15.5977 10.2773 15.6047 10.2021 15.6211C10.1283 15.6372 10.084 15.6608 10.0547 15.6904C10.0253 15.7203 10.0015 15.7664 9.98535 15.8428C9.96908 15.92 9.96193 16.0216 9.96191 16.1572V27.0801C11.0563 27.0744 12.1293 27.0742 13.2178 27.0742C13.2185 27.046 13.2207 27.0185 13.2207 26.9902V16.0498C13.2207 15.8586 13.1836 15.754 13.124 15.6943C13.0644 15.6347 12.9597 15.5977 12.7686 15.5977C12.0139 15.5913 11.2652 15.5977 10.5088 15.5977Z" fill="#C6273A" stroke="#C6273A" stroke-width="0.2"/>
<path d="M19.7012 17.123C20.1672 17.1264 20.5493 17.2631 20.8145 17.5283C21.0795 17.7936 21.2157 18.1752 21.2158 18.6445L21.2217 27.4531C21.2217 27.5915 21.2073 27.73 21.1494 27.8516C21.0896 27.9772 20.9872 28.0768 20.8301 28.1426L20.8115 28.1504H16.1953L16.1719 28.1357C16.038 28.0561 15.9473 27.9538 15.8916 27.8311C15.8368 27.7102 15.8184 27.5757 15.8184 27.4346C15.8247 24.5155 15.8242 21.596 15.8242 18.6768C15.8242 18.1951 15.9598 17.8046 16.2285 17.5342C16.4972 17.2639 16.8859 17.1263 17.3643 17.123H19.7012ZM17.4287 18.1992C17.1673 18.1992 17.0444 18.2335 16.9795 18.2979C16.915 18.3619 16.8809 18.4824 16.8809 18.7402V27.0859C17.9821 27.0803 19.0509 27.0801 20.1406 27.0801C20.143 27.0537 20.1465 27.0325 20.1465 27.0088V18.6387C20.1465 18.4463 20.1096 18.3468 20.0518 18.291C19.9929 18.2344 19.8874 18.1992 19.6875 18.1992H17.4287Z" fill="#C6273A" stroke="#C6273A" stroke-width="0.2"/>
<path d="M5.98633 20.5947L6.125 20.6035C6.80764 20.679 7.32838 21.2172 7.34766 21.9238C7.37308 22.9725 7.36035 24.022 7.36035 25.0674V27.4795C7.36031 27.6179 7.34013 27.7511 7.28027 27.8672C7.21893 27.986 7.11969 28.0792 6.97656 28.1416L6.95801 28.1504H1.96289V28.0508C1.95654 25.9564 1.95703 23.8554 1.95703 21.7549V21.7354L1.96387 21.7178C1.97755 21.6836 1.99353 21.6496 2.00586 21.6221C2.01892 21.5929 2.02951 21.5673 2.03711 21.542L2.03809 21.5371C2.235 20.9806 2.72099 20.6016 3.31836 20.5947L4.65234 20.5859C5.097 20.5859 5.54167 20.5884 5.98633 20.5947ZM3.48438 21.6582C3.29075 21.6582 3.18441 21.6963 3.12305 21.7588C3.0609 21.8221 3.02258 21.9326 3.01953 22.1309V27.0742H6.28418C6.28476 27.0705 6.28516 27.0681 6.28516 27.0664C6.28516 25.3905 6.2915 23.722 6.28516 22.0469L6.27832 21.9453C6.26514 21.8548 6.2326 21.7946 6.18945 21.7539C6.14512 21.7122 6.07859 21.6802 5.97949 21.666L5.86914 21.6582C5.07658 21.6519 4.28488 21.6582 3.48438 21.6582Z" fill="#C6273A" stroke="#C6273A" stroke-width="0.2"/>
</svg>
