<svg width="30" height="30" viewBox="0 0 30 30" fill="none" xmlns="http://www.w3.org/2000/svg">
<path d="M21.292 18.7725C19.0547 18.7657 17.2198 20.6064 17.2197 22.8662C17.2197 25.0692 19.0472 26.8975 21.2646 26.8975C23.5177 26.8973 25.3446 25.0966 25.3447 22.8525V22.8516C25.3514 20.6064 23.5371 18.7793 21.292 18.7725ZM18.1797 18.5156C18.3905 18.3869 18.594 18.2583 18.8076 18.1543C18.8839 18.1161 18.9234 18.0823 18.9463 18.0469C18.9688 18.0121 18.9834 17.9637 18.9834 17.8799L18.9766 12.7871V12.6416H18.1875C18.181 14.5973 18.1797 16.541 18.1797 18.5156ZM22.2764 9.8916V17.4941C22.2764 17.5163 22.2826 17.5549 22.2939 17.5889L22.3047 17.6143C22.5487 17.689 22.7924 17.7499 23.0439 17.8135V9.88574C22.7892 9.89022 22.5438 9.89155 22.2764 9.8916ZM24.3311 18.293C24.3311 18.369 24.3408 18.4216 24.3604 18.4639C24.3796 18.5054 24.4128 18.5462 24.4736 18.5918L24.6338 18.7178C26.2568 20.0383 26.958 22.174 26.4316 24.1826C25.8741 26.2978 24.13 27.8263 21.9512 28.1123L21.9521 28.1133C21.915 28.1186 21.8826 28.1335 21.8291 28.1514L21.8135 28.1562H20.7607L20.748 28.1533C20.4951 28.0866 20.2462 28.0356 19.9854 27.9717C19.7292 27.909 19.4718 27.8361 19.2256 27.7275H19.2246C17.3195 26.8855 16.2386 25.4096 15.9961 23.3408C15.8456 22.0864 16.1834 20.9553 16.8379 19.9023C16.8879 19.8179 16.914 19.6915 16.9141 19.5771V19.5762C16.9211 17.1076 16.9209 14.6318 16.9209 12.1631C16.9209 11.8934 16.9603 11.6819 17.0967 11.543C17.2339 11.4035 17.4451 11.3623 17.7158 11.3623H19.4902C19.7248 11.3623 19.9155 11.4087 20.0449 11.5381C20.1743 11.6675 20.2207 11.8583 20.2207 12.0928V17.6182C20.4876 17.5844 20.7466 17.5514 21.0244 17.5176V9.39258C21.0244 9.13886 21.0642 8.93688 21.1982 8.80273C21.3324 8.6686 21.5367 8.62695 21.7979 8.62695H23.5996C23.8396 8.62695 24.0305 8.67088 24.1582 8.80078C24.2851 8.92991 24.3274 9.12147 24.3311 9.35645V18.293Z" fill="#C6273A" stroke="#C6273A" stroke-width="0.2"/>
<path d="M24.2959 1.95703L24.3154 1.96484C24.4828 2.03886 24.6026 2.14382 24.6787 2.28027C24.7538 2.4151 24.7812 2.57276 24.7812 2.74414V2.74512C24.7672 3.83841 24.7744 4.92453 24.7744 6.01953V6.17969C24.7507 6.55879 24.4984 6.83479 24.1416 6.83496H24.1387C23.8288 6.82749 23.5892 6.61106 23.5342 6.29883L23.5225 6.16016V4.10547C23.5018 4.12408 23.4817 4.14138 23.4619 4.16113C22.515 5.11157 21.5658 6.06019 20.6172 7.00879L17.7734 9.85645C17.5645 10.0654 17.3835 10.2012 17.1836 10.2012C17.0338 10.2012 16.8944 10.1253 16.7461 9.99902L16.5938 9.85645C16.3169 9.57612 16.0397 9.29728 15.7627 9.01855C15.4859 8.74 15.2086 8.46112 14.9316 8.18066C14.9049 8.15393 14.8764 8.12661 14.8438 8.0957C14.8321 8.08472 14.8201 8.07249 14.8076 8.06055C14.1095 8.75909 13.4239 9.45115 12.7383 10.1436L12.7373 10.1445C10.2548 12.6271 7.77105 15.116 5.28125 17.5918C5.13843 17.7346 4.91318 17.8724 4.70312 17.8809H4.70215C4.59863 17.8852 4.49372 17.8403 4.4082 17.7852C4.31986 17.7282 4.23798 17.6522 4.17871 17.5771V17.5762C4.01388 17.3728 4.07209 17.1249 4.2041 16.9385V16.9375C4.26605 16.8523 4.33566 16.7831 4.4082 16.7178L14.2236 6.90234C14.4265 6.69959 14.6148 6.57324 14.8203 6.57324C14.9744 6.57334 15.1186 6.64464 15.2666 6.76562L15.417 6.90234L15.418 6.90332C15.716 7.20838 16.0136 7.51559 16.3115 7.82227C16.5858 8.10466 16.8606 8.38707 17.1348 8.66797C18.9598 6.81627 20.7464 5.00905 22.5195 3.21582H20.7324C20.5248 3.2158 20.3533 3.18528 20.2207 3.10742C20.084 3.02712 20.0002 2.90331 19.9561 2.74316C19.9112 2.58791 19.9221 2.4434 20 2.30957C20.075 2.18077 20.2066 2.07237 20.3809 1.9707L20.4043 1.95703H24.2959Z" fill="#C6273A" stroke="#C6273A" stroke-width="0.2"/>
<path d="M12.9121 19.7322C12.9121 18.2172 12.9121 16.7022 12.9121 15.1873C12.9121 14.6402 13.0875 14.4648 13.6486 14.4648C14.2167 14.4648 14.7848 14.4648 15.3529 14.4648C15.8298 14.4648 16.0262 14.6472 16.0262 15.1171C16.0262 18.2032 16.0262 21.2962 16.0262 24.3823C16.0262 24.8592 15.8439 25.0346 15.3599 25.0416C14.7708 25.0416 14.1746 25.0416 13.5854 25.0416C13.1155 25.0416 12.9261 24.8522 12.9261 24.3753C12.9121 22.8252 12.9121 21.2822 12.9121 19.7322ZM14.9531 23.9755C14.9531 21.149 14.9531 18.3364 14.9531 15.5379C14.6165 15.5379 14.3008 15.5379 13.9852 15.5379C13.9852 18.3575 13.9852 21.163 13.9852 23.9755C14.3078 23.9755 14.6235 23.9755 14.9531 23.9755Z" fill="#C6273A"/>
<path d="M8.76678 20.3208C8.76678 19.0023 8.76678 17.6837 8.76678 16.3651C8.76678 15.8531 8.94212 15.6777 9.44711 15.6777C10.0503 15.6777 10.6465 15.6777 11.2496 15.6777C11.6564 15.6777 11.8669 15.8811 11.8669 16.2809C11.8669 18.9812 11.8669 21.6745 11.8669 24.3748C11.8669 24.7816 11.6705 24.985 11.2567 24.985C10.6324 24.992 10.0082 24.992 9.37698 24.985C8.94914 24.978 8.76678 24.7886 8.75977 24.3538C8.75977 23.0141 8.76678 21.6675 8.76678 20.3208ZM10.8008 23.975C10.8008 21.5553 10.8008 19.1495 10.8008 16.7508C10.4641 16.7508 10.1485 16.7508 9.82586 16.7508C9.82586 19.1636 9.82586 21.5623 9.82586 23.975C10.1555 23.975 10.4711 23.975 10.8008 23.975Z" fill="#C6273A"/>
<path d="M7.71647 22.5993C7.71647 23.1814 7.71647 23.7636 7.71647 24.3457C7.71647 24.7806 7.52009 24.9769 7.07822 24.984C6.46101 24.991 5.8438 24.991 5.22659 24.984C4.79173 24.9769 4.61639 24.7876 4.60938 24.3597C4.60938 23.1744 4.60938 21.9961 4.60938 20.8108C4.60938 20.397 4.80576 20.2006 5.21256 20.2006C5.8438 20.1936 6.48205 20.1936 7.11329 20.2006C7.49904 20.2076 7.70244 20.411 7.70946 20.8038C7.71647 21.3999 7.71647 22.0031 7.71647 22.5993ZM6.64336 23.981C6.64336 23.0622 6.64336 22.1644 6.64336 21.2667C6.31372 21.2667 5.9981 21.2667 5.68248 21.2667C5.68248 22.1785 5.68248 23.0762 5.68248 23.981C6.00511 23.981 6.31372 23.981 6.64336 23.981Z" fill="#C6273A"/>
<path d="M22.0137 26.085C21.9928 26.225 21.9411 26.3453 21.8594 26.4385C21.7492 26.5638 21.5933 26.6296 21.415 26.6338H21.4121C21.229 26.6337 21.0723 26.568 20.9609 26.4395C20.8538 26.3157 20.7967 26.1435 20.7871 25.9414C20.776 25.9137 20.7677 25.8869 20.7637 25.8594C20.7444 25.8512 20.7252 25.8422 20.7051 25.834L20.585 25.7832C20.2566 25.63 19.9959 25.4252 19.8105 25.1641C19.6251 24.9028 19.5185 24.59 19.4893 24.2275C19.4738 24.0335 19.5153 23.8606 19.6123 23.7295C19.7101 23.5973 19.8576 23.5165 20.0332 23.4961C20.2123 23.4753 20.3767 23.5299 20.501 23.6436C20.5933 23.7281 20.6604 23.8426 20.6982 23.9766L20.7266 24.1162V24.1172C20.7644 24.4446 20.9523 24.638 21.2129 24.667L21.3164 24.6699C21.5514 24.6581 21.7367 24.5161 21.8154 24.2852C21.9152 23.977 21.7252 23.646 21.4062 23.5811V23.5801C21.3245 23.5638 21.2396 23.5567 21.1504 23.5479C21.0629 23.5392 20.97 23.5295 20.8799 23.5107H20.877C20.1207 23.3326 19.5701 22.7013 19.5029 21.9424C19.429 21.1367 19.8445 20.4153 20.5654 20.0957L20.5674 20.0947C20.6343 20.0669 20.7014 20.0384 20.7793 20.0068V19.6602C20.8045 19.3407 21.0725 19.1005 21.3789 19.084H21.3818C21.5303 19.0799 21.6843 19.1284 21.8008 19.2168C21.9183 19.306 22.0054 19.4429 21.9961 19.6104V19.6113C21.9835 19.8033 22.0288 19.9361 22.1074 20.0459C22.1894 20.1604 22.3113 20.2554 22.4658 20.3643L22.4668 20.3652C22.8905 20.6681 23.082 21.1419 23.1113 21.6465L23.1084 21.7861C23.0792 22.056 22.9132 22.2652 22.6709 22.3379L22.5439 22.3623C22.3634 22.3787 22.1999 22.325 22.0762 22.2119C21.9843 22.1279 21.9181 22.0149 21.8809 21.8818L21.8535 21.7422C21.8311 21.5661 21.7673 21.4316 21.6787 21.3408C21.591 21.2512 21.4723 21.1975 21.3242 21.1914C21.039 21.1795 20.8121 21.3611 20.7451 21.6475C20.6768 21.9652 20.9119 22.2738 21.2832 22.3174C21.4536 22.337 21.6692 22.3458 21.8506 22.4062H21.8516C22.2168 22.5304 22.5119 22.7249 22.7256 22.9873C22.9128 23.2172 23.0341 23.4955 23.0859 23.8174L23.1045 23.958L23.1123 24.0986C23.1203 24.4208 23.055 24.7142 22.918 24.9727C22.7614 25.2678 22.5135 25.5121 22.1846 25.7021C22.1192 25.74 22.0803 25.7683 22.0566 25.7998C22.0363 25.827 22.0217 25.8646 22.0244 25.9336V25.9385L22.0137 26.085Z" fill="#C6273A" stroke="#C6273A" stroke-width="0.2"/>
</svg>
