<svg width="38" height="30" viewBox="0 0 38 30" fill="none" xmlns="http://www.w3.org/2000/svg">
<path d="M18.9512 14.525C18.9137 14.525 18.8887 14.525 18.8512 14.525C18.7887 14.5125 18.7012 14.5125 18.6262 14.525C15.0012 14.4125 12.2637 11.5625 12.2637 8.05C12.2637 4.475 15.1762 1.5625 18.7512 1.5625C22.3262 1.5625 25.2387 4.475 25.2387 8.05C25.2262 11.5625 22.4762 14.4125 18.9887 14.525C18.9762 14.525 18.9637 14.525 18.9512 14.525ZM18.7512 3.4375C16.2137 3.4375 14.1387 5.5125 14.1387 8.05C14.1387 10.55 16.0887 12.5625 18.5762 12.65C18.6512 12.6375 18.8137 12.6375 18.9762 12.65C21.4262 12.5375 23.3512 10.525 23.3637 8.05C23.3637 5.5125 21.2887 3.4375 18.7512 3.4375Z" fill="#C6273A"/>
<path d="M18.9625 28.1875C16.5125 28.1875 14.05 27.5625 12.1875 26.3125C10.45 25.1625 9.5 23.5875 9.5 21.875C9.5 20.1625 10.45 18.575 12.1875 17.4125C15.9375 14.925 22.0125 14.925 25.7375 17.4125C27.4625 18.5625 28.425 20.1375 28.425 21.85C28.425 23.5625 27.475 25.15 25.7375 26.3125C23.8625 27.5625 21.4125 28.1875 18.9625 28.1875ZM13.225 18.9875C12.025 19.7875 11.375 20.8125 11.375 21.8875C11.375 22.95 12.0375 23.975 13.225 24.7625C16.3375 26.85 21.5875 26.85 24.7 24.7625C25.9 23.9625 26.55 22.9375 26.55 21.8625C26.55 20.8 25.8875 19.775 24.7 18.9875C21.5875 16.9125 16.3375 16.9125 13.225 18.9875Z" fill="#C6273A"/>
<path d="M28.1759 14.6875C28.1384 14.6875 28.1009 14.6875 28.0634 14.675C27.5509 14.725 27.0259 14.3625 26.9759 13.85C26.9259 13.3375 27.2384 12.875 27.7509 12.8125C27.9009 12.8 28.0634 12.8 28.2009 12.8C30.0259 12.7 31.4509 11.2 31.4509 9.3625C31.4509 7.4625 29.9134 5.925 28.0134 5.925C27.5009 5.9375 27.0759 5.5125 27.0759 5C27.0759 4.4875 27.5009 4.0625 28.0134 4.0625C30.9384 4.0625 33.3259 6.45 33.3259 9.375C33.3259 12.25 31.0759 14.575 28.2134 14.6875C28.2009 14.6875 28.1884 14.6875 28.1759 14.6875Z" fill="#C6273A"/>
<path d="M30.4267 25.9375C29.9892 25.9375 29.6017 25.6375 29.5142 25.1875C29.4142 24.675 29.7392 24.1875 30.2392 24.075C31.0267 23.9125 31.7517 23.6 32.3142 23.1625C33.0267 22.625 33.4142 21.95 33.4142 21.2375C33.4142 20.525 33.0267 19.85 32.3267 19.325C31.7767 18.9 31.0892 18.6 30.2767 18.4125C29.7767 18.3 29.4517 17.8 29.5642 17.2875C29.6767 16.7875 30.1767 16.4625 30.6892 16.575C31.7642 16.8125 32.7017 17.2375 33.4642 17.825C34.6267 18.7 35.2892 19.9375 35.2892 21.2375C35.2892 22.5375 34.6142 23.775 33.4517 24.6625C32.6767 25.2625 31.7017 25.7 30.6267 25.9125C30.5517 25.9375 30.4892 25.9375 30.4267 25.9375Z" fill="#C6273A"/>
<path d="M9.61313 14.6875C9.65063 14.6875 9.68813 14.6875 9.72563 14.675C10.2381 14.725 10.7631 14.3625 10.8131 13.85C10.8631 13.3375 10.5506 12.875 10.0381 12.8125C9.88813 12.8 9.72563 12.8 9.58813 12.8C7.76313 12.7 6.33813 11.2 6.33813 9.3625C6.33813 7.4625 7.87563 5.925 9.77563 5.925C10.2881 5.9375 10.7131 5.5125 10.7131 5C10.7131 4.4875 10.2881 4.0625 9.77563 4.0625C6.85063 4.0625 4.46313 6.45 4.46313 9.375C4.46313 12.25 6.71313 14.575 9.57563 14.6875C9.58813 14.6875 9.60063 14.6875 9.61313 14.6875Z" fill="#C6273A"/>
<path d="M7.36239 25.9375C7.79989 25.9375 8.18739 25.6375 8.27489 25.1875C8.37489 24.675 8.04989 24.1875 7.54989 24.075C6.76239 23.9125 6.03739 23.6 5.47489 23.1625C4.76239 22.625 4.37489 21.95 4.37489 21.2375C4.37489 20.525 4.76239 19.85 5.46239 19.325C6.01239 18.9 6.69989 18.6 7.51239 18.4125C8.01239 18.3 8.33739 17.8 8.22489 17.2875C8.11239 16.7875 7.61239 16.4625 7.09989 16.575C6.02489 16.8125 5.08739 17.2375 4.32489 17.825C3.16239 18.7 2.49989 19.9375 2.49989 21.2375C2.49989 22.5375 3.17489 23.775 4.33739 24.6625C5.11239 25.2625 6.08739 25.7 7.16239 25.9125C7.23739 25.9375 7.29989 25.9375 7.36239 25.9375Z" fill="#C6273A"/>
</svg>
