<svg width="30" height="30" viewBox="0 0 30 30" fill="none" xmlns="http://www.w3.org/2000/svg">
<path d="M16.1 26.0758H8.5125C4.075 26.0758 2.5 22.9633 2.5 20.0633V9.93828C2.5 5.61328 4.1875 3.92578 8.5125 3.92578H16.1C20.425 3.92578 22.1125 5.61328 22.1125 9.93828V20.0633C22.1125 24.3883 20.425 26.0758 16.1 26.0758ZM8.5125 5.82578C5.25 5.82578 4.4 6.67578 4.4 9.93828V20.0633C4.4 21.6008 4.9375 24.1758 8.5125 24.1758H16.1C19.3625 24.1758 20.2125 23.3258 20.2125 20.0633V9.93828C20.2125 6.67578 19.3625 5.82578 16.1 5.82578H8.5125Z" fill="#C6273A"/>
<path d="M25.9746 22.6366C25.4371 22.6366 24.7496 22.4616 23.9621 21.9116L20.6246 19.5741C20.3746 19.3991 20.2246 19.1116 20.2246 18.7991V11.1991C20.2246 10.8866 20.3746 10.5991 20.6246 10.4241L23.9621 8.08664C25.4496 7.04914 26.5371 7.34914 27.0496 7.61164C27.5621 7.88664 28.4371 8.59914 28.4371 10.4116V19.5741C28.4371 21.3866 27.5621 22.1116 27.0496 22.3741C26.8121 22.5116 26.4371 22.6366 25.9746 22.6366ZM22.1121 18.2991L25.0496 20.3491C25.6121 20.7366 26.0121 20.7741 26.1746 20.6866C26.3496 20.5991 26.5371 20.2491 26.5371 19.5741V10.4241C26.5371 9.73664 26.3371 9.39914 26.1746 9.31164C26.0121 9.22414 25.6121 9.26164 25.0496 9.64914L22.1121 11.6991V18.2991Z" fill="#C6273A"/>
<path d="M14.375 14.6875C12.825 14.6875 11.5625 13.425 11.5625 11.875C11.5625 10.325 12.825 9.0625 14.375 9.0625C15.925 9.0625 17.1875 10.325 17.1875 11.875C17.1875 13.425 15.925 14.6875 14.375 14.6875ZM14.375 10.9375C13.8625 10.9375 13.4375 11.3625 13.4375 11.875C13.4375 12.3875 13.8625 12.8125 14.375 12.8125C14.8875 12.8125 15.3125 12.3875 15.3125 11.875C15.3125 11.3625 14.8875 10.9375 14.375 10.9375Z" fill="#C6273A"/>
</svg>
